<?xml version="1.0" encoding="iso-8859-1"?>
<!-- Generator: Adobe Illustrator 21.1.0, SVG Export Plug-In . SVG Version: 6.00 Build 0)  -->
<svg version="1.1" id="Calque_1" xmlns="http://www.w3.org/2000/svg" xmlns:xlink="http://www.w3.org/1999/xlink" x="0px" y="0px"
	 width="432px" height="432px" viewBox="0 0 432 432" enable-background="new 0 0 432 432" xml:space="preserve">
<g>
	<path d="M271.638,121.1c0-15.569-7.963-28.191-17.786-28.191c-9.823,0-17.786,12.621-17.786,28.191
		c0,9.731,3.111,18.31,7.842,23.376c0.408,0.437,0.832,0.84,1.263,1.223c9.728,16.684,2.574,87.301-2.396,102.528
		c-3.672,11.251,4.546,10.958,11.077,10.772c6.531,0.186,14.75,0.479,11.077-10.772c-4.969-15.224-12.122-85.822-2.401-102.52
		C267.963,140.883,271.638,131.674,271.638,121.1z"/>
	<path d="M283.758,240.676v41.212c0,0.792,0.648,1.44,1.44,1.44h26.031c0.792,0,1.44-0.648,1.44-1.44v-41.212
		c0-0.792-0.648-1.44-1.44-1.44h-8.917c0.119-0.209,0.192-0.447,0.192-0.704v-95.971c0-0.792-0.648-1.44-1.44-1.44h-5.703
		c-0.792,0-1.44,0.648-1.44,1.44v95.971c0,0.257,0.073,0.495,0.192,0.704h-8.917C284.406,239.236,283.758,239.884,283.758,240.676z"
		/>
	<path d="M216.745,184.135c-0.911,0.832-1.76,1.773-2.461,2.786c-3.207,4.636-4.094,9.839-3.638,15.364
		c0.362,4.379,2.044,8.037,5.618,10.725c0.348,0.262,0.653,0.588,0.953,0.907c0.839,0.891,1.289,1.941,1.235,3.182
		c-0.48,10.889-0.907,21.781-1.465,32.666c-0.249,4.856-0.758,9.698-1.173,14.852c0.064,0.537,0.097,1.385,0.276,2.2
		c0.383,1.735,1.717,2.757,3.479,2.762c1.749,0.005,3.14-1.013,3.441-2.776c0.219-1.283,0.271-2.625,0.179-3.925
		c-0.328-4.633-0.873-9.253-1.11-13.889c-0.543-10.63-0.956-21.266-1.414-31.9c-0.053-1.234,0.391-2.305,1.256-3.172
		c0.697-0.698,1.441-1.35,2.18-2.005c1.833-1.623,3.113-3.609,3.701-5.974c1.423-5.731,1.127-11.365-1.597-16.659
		c-0.967-1.88-2.376-3.603-3.859-5.129C220.502,182.253,218.713,182.338,216.745,184.135z"/>
	<path d="M203.095,205.477c-0.362-6.463-0.737-12.926-1.129-19.387c-0.056-0.923-0.233-1.839-0.354-2.759
		c-0.137,0.009-0.274,0.018-0.41,0.027c0,5.998,0,11.997,0,17.995c0,0.588,0.087,1.258-0.81,1.236
		c-0.799-0.02-0.757-0.627-0.772-1.188c-0.081-3.181-0.146-6.363-0.257-9.544c-0.095-2.733-0.244-5.464-0.369-8.196
		c-0.26,1.72-0.36,3.434-0.423,5.149c-0.159,4.387-0.308,8.774-0.444,13.161c-0.02,0.658-0.097,1.184-0.941,1.123
		c-0.757-0.055-0.692-0.616-0.708-1.126c-0.136-4.278-0.259-8.556-0.409-12.833c-0.061-1.746-0.178-3.49-0.269-5.235
		c-0.233,0.291-0.28,0.574-0.291,0.859c-0.107,2.778-0.22,5.556-0.308,8.334c-0.089,2.815-0.144,5.632-0.23,8.447
		c-0.026,0.861-0.552,1.341-1.105,0.977c-0.277-0.182-0.445-0.716-0.453-1.094c-0.099-4.901-0.162-9.802-0.228-14.704
		c-0.014-1.015-0.002-2.03-0.002-3.045c-0.177,0.003-0.354,0.006-0.53,0.009c-0.381,7.516-0.776,15.032-1.129,22.55
		c-0.064,1.364,0.469,2.534,1.418,3.568c2.183,2.376,3.293,5.069,3.191,8.447c-0.442,14.592-1.178,29.162-2.524,43.701
		c-0.127,1.369-0.085,2.787,0.118,4.146c0.281,1.871,1.669,2.898,3.564,2.908c1.901,0.01,3.317-1.098,3.609-3.003
		c0.17-1.11,0.226-2.266,0.125-3.383c-1.334-14.832-2.174-29.69-2.552-44.578c-0.08-3.159,0.893-5.754,2.961-7.973
		C202.678,208.728,203.194,207.23,203.095,205.477z"/>
	<path d="M184.151,186.108c0.068-0.819-0.15-1.688-0.501-2.476c-0.467-1.049-1.592-1.313-2.801-0.622
		c-1.073,0.614-7.604,9.776-5.507,27.565c0.94,4.333,2.097,8.706,2.104,13.062c0.022,13.138-1.258,26.247-2.983,39.331
		c-0.317,2.402-0.856,4.672,2.441,6.394c0.819,0.389,3.168,0.497,4.658-0.082c0.49-0.19,1.393-0.897,1.719-1.692
		c0.399-0.975,0.575-2.021,0.515-3.025c-0.136-2.264-0.557-4.519-0.73-6.783c-0.62-8.109-1.309-16.218-1.724-24.333
		c-0.246-4.82-0.302-9.662,0.039-14.477C182.157,208.012,183.245,197.064,184.151,186.108z"/>
	<path d="M181.189,165.621c23.579-0.007,42.749-19.176,42.757-42.754c0.009-23.517-19.15-42.761-42.601-42.792
		c-23.742-0.031-42.926,19.098-42.951,42.827C138.368,146.423,157.608,165.628,181.189,165.621z"/>
	<path d="M176.847,316.605v-2.566h86.934c0.54,0,0.984-0.444,0.984-0.984v-9.19c0-0.547-0.444-0.984-0.984-0.984h-86.934v-2.34
		h-20.077c-3.799-21.451-22.521-37.748-45.063-37.748c-25.283,0-45.78,20.496-45.78,45.78c0,25.284,20.496,45.78,45.78,45.78
		c22.542,0,41.265-16.297,45.063-37.748H176.847z M258.787,306.577c1.039,0,1.879,0.84,1.879,1.879c0,1.039-0.84,1.879-1.879,1.879
		c-1.039,0-1.879-0.84-1.879-1.879C256.908,307.418,257.748,306.577,258.787,306.577z"/>
	<path d="M320.957,345.719v-2.35c0-0.619-0.507-1.126-1.126-1.126h-3.171v-4.629c0-0.619-0.507-1.126-1.126-1.126H186.462
		c-0.619,0-1.126,0.507-1.126,1.126v4.629h-2.924c-0.619,0-1.126,0.507-1.126,1.126v3.361c-8.103-2.264-26.548-8.611-26.548,1.323
		c0,10.092,18.175,5.175,26.548,3.054v2.35c0,0.619,0.506,1.126,1.126,1.126h2.924v4.629c0,0.619,0.507,1.126,1.126,1.126h129.073
		c0.619,0,1.126-0.507,1.126-1.126v-4.629h3.171c0.619,0,1.126-0.507,1.126-1.126v-3.361c8.103,2.264,26.548,8.611,26.548-1.323
		C347.505,338.68,329.33,343.598,320.957,345.719z"/>
	<path d="M365.621,313.702c-0.74-3.631-2.943-6.377-5.38-8.984c-2.164-2.315-3.192-4.975-3.18-8.216
		c0.07-18.471,0.029-36.943,0.023-55.414c0-0.426,0.013-0.858-0.047-1.277c-0.184-1.28-1.131-2.228-2.329-2.374
		c-1.292-0.158-2.444,0.528-2.853,1.848c-0.209,0.675-0.255,1.422-0.255,2.136c-0.013,18.685-0.023,37.37,0.005,56.054
		c0.003,2.194-0.623,4.111-1.966,5.804c-0.901,1.135-1.836,2.244-2.792,3.332c-3.974,4.525-4.995,9.76-3.68,15.517
		c0.632,2.764,1.892,5.229,4.13,7.473c0-0.694,0-1.106,0-1.519c0.001-3.541-0.034-7.082,0.04-10.621
		c0.011-0.535,0.408-1.254,0.85-1.531c0.389-0.244,1.311-0.202,1.604,0.098c0.444,0.455,0.749,1.24,0.76,1.891
		c0.068,3.881,0.056,7.764,0.019,11.645c-0.009,0.986,0.43,1.46,1.335,1.478c0.977,0.02,0.853-0.77,0.854-1.391
		c0.007-3.711-0.002-7.423-0.004-11.134c-0.001-1.805,0.559-2.712,1.65-2.685c1.043,0.026,1.532,0.864,1.533,2.646
		c0.002,3.754,0.015,7.508-0.01,11.262c-0.006,0.92,0.285,1.371,1.274,1.224c0.887-0.132,0.897-0.75,0.896-1.423
		c-0.005-3.882-0.01-7.764,0.002-11.646c0.004-1.397,0.597-2.202,1.582-2.232c1.039-0.031,1.775,0.821,1.83,2.193
		c0.039,0.98,0.012,1.962,0.012,2.943c0.001,2.762,0,5.524,0,8.286c0.106,0.04,0.213,0.079,0.32,0.119
		c0.376-0.451,0.789-0.876,1.122-1.356C365.967,323.532,366.656,318.782,365.621,313.702z"/>
	<path d="M277.202,87.715c10.567,0.85,21.194,0.947,31.791,1.446c1.541,0.073,1.942-0.452,1.895-1.914
		c-0.035-1.097-0.053-2.195-0.079-3.292c5.266,0.296,10.531,0.63,15.795,0.965c4.558,0.29,9.114,0.623,13.674,0.894
		c3.66,0.217,7.322,0.422,10.987,0.53c2.199,0.065,3.04-0.863,3.077-3.083c0.015-0.903,0.003-1.807,0.001-2.71
		c-0.002-0.791,0.001-1.581-0.003-2.371c-0.013-2.949-1.035-3.937-4-3.862c-8.801,0.224-17.602,0.452-26.404,0.676
		c-4.423,0.112-8.846,0.22-13.269,0.33c-0.006-0.655-0.018-1.31-0.021-1.964c-0.007-1.22-0.384-1.718-1.658-1.696l-75.328,0.383
		c-0.054,0.227-0.109,0.454-0.163,0.68c0.908,0.642,1.806,1.299,2.726,1.923C248.596,83.029,262.59,86.54,277.202,87.715z"/>
	<path d="M344.457,172.816c1.483-6.814,2.946-13.633,4.565-20.413c1.693-7.1,3.836-14.104,5.266-21.252
		c1.358-6.785,0.734-13.412-2.813-19.713c-5.078-9.028-17.946-10.866-25.038-3.332c-5.223,5.544-6.062,12.261-5.172,19.404
		c0.967,7.761,3.457,15.153,5.731,22.588c2.498,8.158,5.331,16.234,6.465,24.734c0.15,1.127,0.345,2.264,0.469,3.401
		c-0.058,0.156-0.094,0.322-0.094,0.497v95.971c0,0.792,0.648,1.44,1.44,1.44h7.339c0.792,0,1.44-0.648,1.44-1.44V178.73
		c0-0.316-0.106-0.606-0.28-0.844c0.01-0.15,0.017-0.299,0.031-0.451C343.941,175.886,344.128,174.333,344.457,172.816z
		 M350.618,114.352c2.266,4.367,2.648,9.119,2.118,13.923c-0.976,8.853-3.539,17.342-6.085,25.835
		c-1.092,3.649-1.934,7.375-2.892,11.067c-0.091,0.343-0.207,0.678-0.312,1.018c-0.082-0.017-0.165-0.034-0.247-0.054
		c0.411-2.728,0.825-5.456,1.234-8.183c1.449-9.652,3.068-19.285,4.262-28.968c0.485-3.936,0.247-7.999-0.04-11.98
		c-0.173-2.388-1.075-4.727-1.398-7.304C348.392,111.244,349.748,112.674,350.618,114.352z M339.307,106.058
		c0.723,0.666,1.557,1.248,2.155,2.016c2.243,2.875,3.482,6.216,4.347,9.729c1.381,5.614,0.924,11.254,0.125,16.854
		c-1.33,9.335-2.929,18.63-4.265,27.964c-0.601,4.199-0.836,8.453-1.239,12.681c-0.034,0.371-0.068,0.74-0.102,1.109
		c-1.421-23.351-0.698-46.727-1.384-70.081C339.064,106.24,339.185,106.149,339.307,106.058z M332.925,109.413
		c0.706-0.987,1.627-1.829,2.509-2.674c0.757-0.723,1.174-0.32,1.285,0.55c0.06,0.468,0.031,0.944,0.031,1.418
		c0.014,6.377-0.054,12.757,0.054,19.131c0.272,16.338,0.624,29.339,0.941,45.678c0.003,0.139-0.017,3.61-0.025,3.749
		c-0.068,0.008-0.136,0.017-0.204,0.026c-0.272-1.988-0.493-3.984-0.825-5.96c-1.611-9.53-3.116-19.08-4.928-28.571
		c-1.146-6.009-2.328-11.997-2.589-18.116C328.941,119.215,329.652,113.975,332.925,109.413z M331.98,159.423
		c-2.66-9.133-5.405-18.247-7.888-27.428c-1.316-4.863-1.724-9.851-0.219-14.816c0.967-3.19,2.691-5.875,5.254-8.263
		c-0.547,2.932-1.216,5.631-1.523,8.373c-0.607,5.419-0.451,10.854,0.502,16.222c1.647,9.269,3.437,18.513,5.158,27.768
		c0.06,0.315,0.956,4.52,0.735,4.914C333.628,165.23,332.267,160.413,331.98,159.423z"/>
</g>
</svg>
